<svg xmlns="http://www.w3.org/2000/svg" version="1.1" xmlns:xlink="http://www.w3.org/1999/xlink" xmlns:svgjs="http://svgjs.com/svgjs" width="16" height="16"><svg xmlns="http://www.w3.org/2000/svg" width="16" height="16" fill="currentColor" class="bi bi-columns-gap" viewBox="0 0 16 16">
  <path d="M6 1v3H1V1h5zM1 0a1 1 0 0 0-1 1v3a1 1 0 0 0 1 1h5a1 1 0 0 0 1-1V1a1 1 0 0 0-1-1H1zm14 12v3h-5v-3h5zm-5-1a1 1 0 0 0-1 1v3a1 1 0 0 0 1 1h5a1 1 0 0 0 1-1v-3a1 1 0 0 0-1-1h-5zM6 8v7H1V8h5zM1 7a1 1 0 0 0-1 1v7a1 1 0 0 0 1 1h5a1 1 0 0 0 1-1V8a1 1 0 0 0-1-1H1zm14-6v7h-5V1h5zm-5-1a1 1 0 0 0-1 1v7a1 1 0 0 0 1 1h5a1 1 0 0 0 1-1V1a1 1 0 0 0-1-1h-5z"></path>
</svg><style>@media (prefers-color-scheme: light) { :root { filter: none; } }
@media (prefers-color-scheme: dark) { :root { filter: invert(100%); } }
</style></svg>